<svg xmlns="http://www.w3.org/2000/svg" viewBox="0 0 16 16"><defs><clipPath transform="translate(-7.52 -22.83)" id="a"><path d="M0 0h360v99H0z" fill="none"/></clipPath></defs><path fill="#FFF" d="M4 3h10v12H4V3z"/><path fill="#666" d="M4 3v12h10V3H4zm1 1h8v10H5V4z"/><path fill="#999" d="M5 4h8v1H5z"/><path fill="#B9B9B9" d="M2 1h1v1H2zm0 2h1v1H2zm0 2h1v1H2zm0 2h1v1H2zm0 2h1v1H2zm0 2h1v1H2zM4 1h1v1H4zm2 0h1v1H6zm2 0h1v1H8zm2 0h1v1h-1z"/><g clip-path="url(#clip-path)" transform="matrix(.13255 0 0 .13255 -27.48 4.85)" fill="#3152a0"><g clip-path="url(#a)"><path d="M298.72 46.274v-14.76c-.174-12.558-15.426-18.656-24.21-9.68-8.793-8.974-24.046-2.834-24.17 9.73v14.71c0 5.44 8.16 5.44 8.16 0v-14.58a6 6 0 1112 0v14.43a4.27 4.27 0 004.13 4.25 4.19 4.19 0 004-4.25v-14.43c.723-7.201 11.217-7.201 11.94 0v14.58c0 5.44 8.16 5.44 8.16 0"/></g></g></svg>
