<svg xmlns="http://www.w3.org/2000/svg" width="64" height="64" viewBox="0 0 16.933 16.933"><defs><clipPath transform="translate(-7.52 -22.83)" id="a"><path d="M0 0h360v99H0z" fill="none"/></clipPath><clipPath transform="translate(-7.52 -22.83)" id="b"><path d="M0 0h360v99H0z" fill="none"/></clipPath></defs><path fill="#3152a0" d="M0 0h16.961v16.933H0z"/><g data-name="Layer 1" clip-path="url(#clip-path)" transform="matrix(.23833 0 0 .23833 -56.962 .371)" fill="#fff"><g clip-path="url(#a)"><path d="M298.72 46.274v-14.76c-.174-12.558-15.426-18.656-24.21-9.68-8.793-8.974-24.046-2.834-24.17 9.73v14.71c0 5.44 8.16 5.44 8.16 0v-14.58a6 6 0 1112 0v14.43a4.27 4.27 0 004.13 4.25 4.19 4.19 0 004-4.25v-14.43c.723-7.201 11.217-7.201 11.94 0v14.58c0 5.44 8.16 5.44 8.16 0"/></g></g></svg>